<?xml version="1.0" encoding="iso-8859-1"?>
<!-- Uploaded to: SVG Repo, www.svgrepo.com, Generator: SVG Repo Mixer Tools -->
<svg fill="#000000" height="800px" width="800px" version="1.1" id="Layer_1" xmlns="http://www.w3.org/2000/svg" xmlns:xlink="http://www.w3.org/1999/xlink" 
	 viewBox="0 0 511.995 511.995" xml:space="preserve">
<g>
	<g>
		<path d="M446.998,223.328c-23.586-13.617-49.553-19.478-74.935-18.389c14.15-21.709,22.387-47.606,22.387-75.396
			c0-37.726-14.909-72.99-41.981-99.296l-23.316,23.996c20.531,19.951,31.838,46.693,31.838,75.3
			c0,26.699-10.024,51.099-26.499,69.646c-19.716-20.86-47.626-33.898-78.527-33.898c-30.883,0-58.778,13.023-78.492,33.862
			c-16.456-18.542-26.466-42.926-26.466-69.609c0-28.608,11.308-55.349,31.838-75.3l-23.316-23.996
			c-27.071,26.306-41.981,61.57-41.981,99.296c0,27.789,8.236,53.686,22.387,75.395C114.553,203.85,88.584,209.711,65,223.33
			c-32.671,18.86-55.756,49.404-65,86.001l32.438,8.195c7.012-27.755,24.517-50.918,49.292-65.223
			c22.448-12.96,47.742-16.655,71.433-12.291c-3.418,10.51-5.274,21.72-5.274,33.355c0,51.678,36.46,94.992,85.005,105.591
			c-8.122,22.485-23.897,42.334-46.172,55.195c-24.777,14.304-53.592,17.882-81.131,10.077l-9.123,32.19
			c12.576,3.564,25.348,5.328,38.036,5.328c23.95,0,47.588-6.289,68.945-18.619c23.029-13.296,40.787-32.258,52.549-54.115
			c11.762,21.857,29.52,40.82,52.549,54.115c21.359,12.333,44.994,18.619,68.945,18.619c12.687,0,25.462-1.764,38.036-5.328
			l-9.123-32.19c-27.541,7.806-56.355,4.227-81.131-10.077c-22.279-12.863-38.056-32.718-46.177-55.209
			c48.514-10.622,84.944-53.922,84.944-105.577c0-11.631-1.855-22.836-5.271-33.343c23.708-4.383,49.027-0.693,71.495,12.279
			c24.775,14.304,42.281,37.467,49.292,65.223l32.438-8.195C502.756,272.734,479.671,242.19,446.998,223.328z M239.147,346.052
			c-33.067-7.651-57.801-37.324-57.801-72.686c0-7.715,1.178-15.162,3.361-22.168c16.325,8.92,30.48,22.278,40.443,39.534
			C235.207,308.151,239.684,327.284,239.147,346.052z M203.455,220.41c13.494-13.381,32.051-21.663,52.511-21.663
			c20.474,0,39.043,8.291,52.539,21.687c-15.454,8.961-33.39,14.099-52.504,14.099C236.869,234.534,218.919,229.387,203.455,220.41z
			 M272.85,346.036c-0.533-18.763,3.944-37.891,13.998-55.305c9.95-17.235,24.084-30.583,40.386-39.503
			c2.178,6.997,3.352,14.433,3.352,22.137C330.586,308.703,305.888,338.361,272.85,346.036z"/>
	</g>
</g>
</svg>