<?xml version="1.0" encoding="iso-8859-1"?>
<!-- Uploaded to: SVG Repo, www.svgrepo.com, Generator: SVG Repo Mixer Tools -->
<svg height="800px" width="800px" version="1.1" id="Layer_1" xmlns="http://www.w3.org/2000/svg" xmlns:xlink="http://www.w3.org/1999/xlink" 
	 viewBox="0 0 512 512" xml:space="preserve">
<g transform="translate(1 1)">
	<path style="fill:#FFDD09;" d="M383,255H109.933c-9.387,0-17.067-7.68-17.067-17.067V75.8h307.2v162.133
		C400.067,247.32,392.387,255,383,255"/>
	<path style="fill:#FFFFFF;" d="M92.867,237.933V75.8h-25.6v162.133c0,9.387,7.68,17.067,17.067,17.067h25.6
		C100.547,255,92.867,247.32,92.867,237.933"/>
	<path style="fill:#FD9808;" d="M400.067,75.8v162.133c0,9.387-7.68,17.067-17.067,17.067h25.6c9.387,0,17.067-7.68,17.067-17.067
		V75.8H400.067z"/>
	<g>
		<path style="fill:#FCC309;" d="M269.507,144.067H224.28c-9.387,0-17.067-7.68-17.067-17.067s7.68-17.067,17.067-17.067h45.227
			c9.387,0,17.067,7.68,17.067,17.067S278.893,144.067,269.507,144.067"/>
		<path style="fill:#FCC309;" d="M408.6,75.8H84.333c-9.387,0-17.067-7.68-17.067-17.067V24.6c0-9.387,7.68-17.067,17.067-17.067
			H408.6c9.387,0,17.067,7.68,17.067,17.067v34.133C425.667,68.12,417.987,75.8,408.6,75.8"/>
	</g>
	<path style="fill:#FFFFFF;" d="M67.267,58.733V24.6c0-9.387,7.68-17.067,17.067-17.067h-25.6c-9.387,0-17.067,7.68-17.067,17.067
		v34.133c0,9.387,7.68,17.067,17.067,17.067h25.6C74.947,75.8,67.267,68.12,67.267,58.733"/>
	<path style="fill:#FD9808;" d="M434.2,7.533h-25.6c9.387,0,17.067,7.68,17.067,17.067v34.133c0,9.387-7.68,17.067-17.067,17.067
		h25.6c9.387,0,17.067-7.68,17.067-17.067V24.6C451.267,15.213,443.587,7.533,434.2,7.533"/>
	<path style="fill:#FFDD09;" d="M383,502.467H109.933c-9.387,0-17.067-7.68-17.067-17.067V323.267h307.2V485.4
		C400.067,494.787,392.387,502.467,383,502.467"/>
	<path style="fill:#FFFFFF;" d="M92.867,485.4V323.267h-25.6V485.4c0,9.387,7.68,17.067,17.067,17.067h25.6
		C100.547,502.467,92.867,494.787,92.867,485.4"/>
	<path style="fill:#FD9808;" d="M400.067,323.267V485.4c0,9.387-7.68,17.067-17.067,17.067h25.6c9.387,0,17.067-7.68,17.067-17.067
		V323.267H400.067z"/>
	<g>
		<path style="fill:#FCC309;" d="M269.507,391.533H224.28c-9.387,0-17.067-7.68-17.067-17.067s7.68-17.067,17.067-17.067h45.227
			c9.387,0,17.067,7.68,17.067,17.067S278.893,391.533,269.507,391.533"/>
		<path style="fill:#FCC309;" d="M408.6,323.267H84.333c-9.387,0-17.067-7.68-17.067-17.067v-34.133
			c0-9.387,7.68-17.067,17.067-17.067H408.6c9.387,0,17.067,7.68,17.067,17.067V306.2
			C425.667,315.587,417.987,323.267,408.6,323.267"/>
	</g>
	<path style="fill:#FFFFFF;" d="M67.267,306.2v-34.133c0-9.387,7.68-17.067,17.067-17.067h-25.6c-9.387,0-17.067,7.68-17.067,17.067
		V306.2c0,9.387,7.68,17.067,17.067,17.067h25.6C74.947,323.267,67.267,315.587,67.267,306.2"/>
	<path style="fill:#FD9808;" d="M434.2,255h-25.6c9.387,0,17.067,7.68,17.067,17.067V306.2c0,9.387-7.68,17.067-17.067,17.067h25.6
		c9.387,0,17.067-7.68,17.067-17.067v-34.133C451.267,262.68,443.587,255,434.2,255"/>
	<g>
		<path style="fill:#FFDD09;" d="M425.667,75.8v162.133c0,9.387-7.68,17.067-17.067,17.067h25.6c9.387,0,17.067-7.68,17.067-17.067
			V75.8H425.667z"/>
		<path style="fill:#FFDD09;" d="M459.8,7.533h-25.6c9.387,0,17.067,7.68,17.067,17.067v34.133c0,9.387-7.68,17.067-17.067,17.067
			h25.6c9.387,0,17.067-7.68,17.067-17.067V24.6C476.867,15.213,469.187,7.533,459.8,7.533"/>
		<path style="fill:#FFDD09;" d="M425.667,323.267V485.4c0,9.387-7.68,17.067-17.067,17.067h25.6c9.387,0,17.067-7.68,17.067-17.067
			V323.267H425.667z"/>
		<path style="fill:#FFDD09;" d="M459.8,255h-25.6c9.387,0,17.067,7.68,17.067,17.067V306.2c0,9.387-7.68,17.067-17.067,17.067h25.6
			c9.387,0,17.067-7.68,17.067-17.067v-34.133C476.867,262.68,469.187,255,459.8,255"/>
	</g>
	<path d="M408.6,511H84.333c-14.507,0-25.6-11.093-25.6-25.6v-59.733c0-5.12,3.413-8.533,8.533-8.533s8.533,3.413,8.533,8.533V485.4
		c0,5.12,3.413,8.533,8.533,8.533H408.6c5.12,0,8.533-3.413,8.533-8.533V331.8H75.8v25.6c0,5.12-3.413,8.533-8.533,8.533
		s-8.533-3.413-8.533-8.533v-34.133c0-5.12,3.413-8.533,8.533-8.533h358.4c5.12,0,8.533,3.413,8.533,8.533V485.4
		C434.2,499.907,422.253,511,408.6,511z"/>
	<path d="M75.8,391.533c0-5.12-3.413-8.533-8.533-8.533s-8.533,3.413-8.533,8.533s3.413,8.533,8.533,8.533
		S75.8,396.653,75.8,391.533"/>
	<path d="M434.2,331.8H58.733c-14.507,0-25.6-11.093-25.6-25.6v-34.133c0-14.507,11.093-25.6,25.6-25.6H434.2
		c14.507,0,25.6,11.093,25.6,25.6V306.2C459.8,320.707,447.853,331.8,434.2,331.8z M58.733,263.533c-5.12,0-8.533,3.413-8.533,8.533
		V306.2c0,5.12,3.413,8.533,8.533,8.533H434.2c5.12,0,8.533-3.413,8.533-8.533v-34.133c0-5.12-3.413-8.533-8.533-8.533H58.733z"/>
	<path d="M408.6,263.533H84.333c-14.507,0-25.6-11.093-25.6-25.6V75.8c0-5.12,3.413-8.533,8.533-8.533h358.4
		c5.12,0,8.533,3.413,8.533,8.533v162.133C434.2,252.44,422.253,263.533,408.6,263.533z M75.8,84.333v153.6
		c0,5.12,3.413,8.533,8.533,8.533H408.6c5.12,0,8.533-3.413,8.533-8.533v-153.6H75.8z"/>
	<path d="M434.2,84.333H58.733c-14.507,0-25.6-11.093-25.6-25.6V24.6c0-14.507,11.093-25.6,25.6-25.6H434.2
		c14.507,0,25.6,11.093,25.6,25.6v34.133C459.8,73.24,447.853,84.333,434.2,84.333z M58.733,16.067c-5.12,0-8.533,3.413-8.533,8.533
		v34.133c0,5.12,3.413,8.533,8.533,8.533H434.2c5.12,0,8.533-3.413,8.533-8.533V24.6c0-5.12-3.413-8.533-8.533-8.533H58.733z"/>
	<path d="M269.507,152.6H224.28c-14.507,0-25.6-11.093-25.6-25.6s11.093-25.6,25.6-25.6h45.227c14.507,0,25.6,11.093,25.6,25.6
		S283.16,152.6,269.507,152.6z M223.427,118.467c-5.12,0-8.533,3.413-8.533,8.533s3.413,8.533,8.533,8.533h45.227
		c5.12,0,8.533-3.413,8.533-8.533s-3.413-8.533-8.533-8.533H223.427z"/>
	<path d="M269.507,400.067H224.28c-14.507,0-25.6-11.093-25.6-25.6c0-14.507,11.093-25.6,25.6-25.6h45.227
		c14.507,0,25.6,11.093,25.6,25.6C295.107,388.973,283.16,400.067,269.507,400.067z M223.427,365.933
		c-5.12,0-8.533,3.413-8.533,8.533c0,5.12,3.413,8.533,8.533,8.533h45.227c5.12,0,8.533-3.413,8.533-8.533
		c0-5.12-3.413-8.533-8.533-8.533H223.427z"/>
	<path d="M144.067,186.733H101.4c-5.12,0-8.533-3.413-8.533-8.533c0-5.12,3.413-8.533,8.533-8.533h42.667
		c5.12,0,8.533,3.413,8.533,8.533C152.6,183.32,148.333,186.733,144.067,186.733z"/>
	<path d="M127,220.867h-25.6c-5.12,0-8.533-3.413-8.533-8.533c0-5.12,3.413-8.533,8.533-8.533H127c5.12,0,8.533,3.413,8.533,8.533
		C135.533,217.453,131.267,220.867,127,220.867z"/>
	<path d="M144.067,434.2H101.4c-5.12,0-8.533-3.413-8.533-8.533s3.413-8.533,8.533-8.533h42.667c5.12,0,8.533,3.413,8.533,8.533
		S148.333,434.2,144.067,434.2z"/>
	<path d="M127,468.333h-25.6c-5.12,0-8.533-3.413-8.533-8.533s3.413-8.533,8.533-8.533H127c5.12,0,8.533,3.413,8.533,8.533
		S131.267,468.333,127,468.333z"/>
</g>
</svg>