<?xml version="1.0" encoding="iso-8859-1"?>
<!-- Uploaded to: SVG Repo, www.svgrepo.com, Generator: SVG Repo Mixer Tools -->
<svg fill="#000000" height="800px" width="800px" version="1.1" id="Layer_1" xmlns="http://www.w3.org/2000/svg" xmlns:xlink="http://www.w3.org/1999/xlink" 
	 viewBox="0 0 512 512" xml:space="preserve">
<g>
	<g>
		<g>
			<path d="M278.758,136.533c4.71,0,8.533-3.831,8.533-8.533s-3.823-8.533-8.533-8.533h-45.517c-4.71,0-8.533,3.831-8.533,8.533
				s3.823,8.533,8.533,8.533H278.758z"/>
			<path d="M443.733,85.333c14.114,0,25.6-11.486,25.6-25.6V25.6c0-14.114-11.486-25.6-25.6-25.6H68.267
				c-14.114,0-25.6,11.486-25.6,25.6v34.133c0,14.114,11.486,25.6,25.6,25.6v153.6c0,3.004,0.614,5.854,1.57,8.533h-1.57
				c-14.114,0-25.6,11.486-25.6,25.6V307.2c0,14.114,11.486,25.6,25.6,25.6v153.6c0,14.114,11.486,25.6,25.6,25.6h324.267
				c14.114,0,25.6-11.486,25.6-25.6V332.8c14.114,0,25.6-11.486,25.6-25.6v-34.133c0-14.114-11.486-25.6-25.6-25.6h-1.57
				c0.956-2.679,1.57-5.53,1.57-8.533V85.333z M136.533,469.333h-25.6c-4.719,0-8.533-3.823-8.533-8.533s3.814-8.533,8.533-8.533
				h25.6c4.719,0,8.533,3.823,8.533,8.533S141.252,469.333,136.533,469.333z M153.6,435.2h-42.667c-4.719,0-8.533-3.823-8.533-8.533
				s3.814-8.533,8.533-8.533H153.6c4.719,0,8.533,3.823,8.533,8.533S158.319,435.2,153.6,435.2z M278.758,401.067h-45.517
				c-14.114,0-25.6-11.486-25.6-25.6s11.486-25.6,25.6-25.6h45.517c14.114,0,25.6,11.486,25.6,25.6S292.873,401.067,278.758,401.067
				z M443.733,264.533c4.71,0,8.533,3.831,8.533,8.533V307.2c0,4.702-3.823,8.533-8.533,8.533H435.2H76.8h-8.533
				c-4.71,0-8.533-3.831-8.533-8.533v-34.133c0-4.702,3.823-8.533,8.533-8.533h25.6h324.267H443.733z M110.933,204.8h25.6
				c4.719,0,8.533,3.823,8.533,8.533c0,4.71-3.814,8.533-8.533,8.533h-25.6c-4.719,0-8.533-3.823-8.533-8.533
				C102.4,208.623,106.214,204.8,110.933,204.8z M102.4,179.2c0-4.71,3.814-8.533,8.533-8.533H153.6
				c4.719,0,8.533,3.823,8.533,8.533s-3.814,8.533-8.533,8.533h-42.667C106.214,187.733,102.4,183.91,102.4,179.2z M207.642,128
				c0-14.114,11.486-25.6,25.6-25.6h45.517c14.114,0,25.6,11.486,25.6,25.6s-11.486,25.6-25.6,25.6h-45.517
				C219.128,153.6,207.642,142.114,207.642,128z M435.2,68.267H76.8h-8.533c-4.71,0-8.533-3.831-8.533-8.533V25.6
				c0-4.702,3.823-8.533,8.533-8.533h375.467c4.71,0,8.533,3.831,8.533,8.533v34.133c0,4.702-3.823,8.533-8.533,8.533H435.2z"/>
			<path d="M278.758,366.933h-45.517c-4.71,0-8.533,3.831-8.533,8.533s3.823,8.533,8.533,8.533h45.517
				c4.71,0,8.533-3.831,8.533-8.533S283.469,366.933,278.758,366.933z"/>
		</g>
	</g>
</g>
</svg>