<?xml version="1.0" encoding="iso-8859-1"?>
<!-- Uploaded to: SVG Repo, www.svgrepo.com, Generator: SVG Repo Mixer Tools -->
<!DOCTYPE svg PUBLIC "-//W3C//DTD SVG 1.1//EN" "http://www.w3.org/Graphics/SVG/1.1/DTD/svg11.dtd">
<svg fill="#000000" height="800px" width="800px" version="1.1" id="Capa_1" xmlns="http://www.w3.org/2000/svg" xmlns:xlink="http://www.w3.org/1999/xlink" 
	 viewBox="0 0 413.021 413.021" xml:space="preserve">
<path d="M409.271,187.254L143.917,34.052c-2.32-1.34-5.18-1.34-7.5,0L3.75,110.648c-2.32,1.34-3.75,3.816-3.75,6.495v102.129
	c0,2.679,1.43,5.156,3.75,6.495l265.354,153.202c1.16,0.67,2.455,1.005,3.75,1.005s2.59-0.335,3.75-1.005l132.667-76.598
	c2.32-1.34,3.75-3.816,3.75-6.495V193.749C413.021,191.069,411.591,188.593,409.271,187.254z M398.021,214.971l-117.667,67.918
	v-8.213l117.667-67.936V214.971z M15,130.133l250.354,144.542v8.213L15,138.366V130.133z M140.188,151.327l161.89,93.486
	l-29.224,16.873l-161.894-93.47L140.188,151.327z M317.077,236.152l-169.392-97.817l-0.016-84.796l242.851,140.21L317.077,236.152z
	 M132.67,53.536l0.016,84.801l-36.723,21.22L22.5,117.143L132.67,53.536z M15,155.686l250.354,144.522v59.276L15,214.942V155.686z
	 M280.354,359.483v-59.275l117.667-67.918v59.256L280.354,359.483z"/>
</svg>